<svg xmlns="http://www.w3.org/2000/svg" width="25" height="24" viewBox="0 0 25 24" fill="none">
  <path d="M12.1017 16.2802L12.1017 16.2802L8.48988 17.749L8.77059 13.86C8.79875 13.47 8.67345 13.0843 8.42139 12.7853L5.90843 9.80409L9.69376 8.86932C10.0734 8.77556 10.4015 8.53722 10.608 8.20509L12.6667 4.89389L14.7255 8.20509L15.5747 7.67708L14.7255 8.20509C14.932 8.53722 15.26 8.77556 15.6397 8.86932L19.4251 9.80409L16.9121 12.7853C16.66 13.0843 16.5347 13.47 16.5629 13.86L16.8436 17.749L13.2318 16.2802L12.8551 17.2066L13.2318 16.2802C12.8695 16.1329 12.464 16.1329 12.1017 16.2802ZM5.12771 9.99689L5.12832 9.99674C5.12812 9.99679 5.12791 9.99684 5.12771 9.99689L5.00784 9.51147L5.12771 9.99689Z" stroke="url(#paint0_linear_2675_15412)" stroke-width="2"/>
  <defs>
    <linearGradient id="paint0_linear_2675_15412" x1="12.6667" y1="3" x2="12.6667" y2="21" gradientUnits="userSpaceOnUse">
      <stop stop-color="#605DEC"/>
      <stop offset="1" stop-color="#2A26D9"/>
    </linearGradient>
  </defs>
</svg>