<svg xmlns="http://www.w3.org/2000/svg" width="27" height="25" viewBox="0 0 27 25" fill="none">
  <path d="M0.880592 12.3899L1.32245 12.635C2.47524 13.2746 3.77055 13.6253 5.09341 13.6559L8.03027 13.6754L14.2733 23.8711C14.3236 23.9532 14.3958 24.0204 14.482 24.0653L15.7774 24.7398C15.9827 24.8467 16.2194 24.6645 16.1623 24.4435L13.5705 14.4107C13.484 14.0758 13.7443 13.7519 14.0962 13.7566L21.5409 13.857C21.9779 13.8624 22.3851 14.0765 22.632 14.4308L24.3086 16.8369C24.5048 17.1185 24.8047 17.3145 25.1449 17.3835L26.1335 17.5842C26.2298 17.6037 26.3138 17.5183 26.2906 17.4246L25.4582 14.0645C25.4521 14.04 25.4496 14.0147 25.4509 13.9894L25.4651 13.7073C25.4712 13.5869 25.5601 13.4861 25.6806 13.4628L26.469 13.3111C26.6115 13.2836 26.6134 13.0843 26.4715 13.0537L25.7303 12.8938C25.6024 12.8661 25.5133 12.7518 25.5198 12.6235L25.5331 12.3588C25.5344 12.3336 25.5394 12.3087 25.5479 12.2848L26.7142 9.02555C26.7467 8.93464 26.6717 8.84125 26.574 8.851L25.5702 8.95115C25.2248 8.98562 24.9067 9.15045 24.6831 9.41089L22.7739 11.635C22.4921 11.9632 22.0644 12.1353 21.6284 12.0959L14.2536 11.4389C13.9033 11.4077 13.6775 11.0594 13.7973 10.7351L17.3366 1.15468C17.4157 0.940553 17.1986 0.735322 16.9835 0.82103L15.6237 1.36308C15.5355 1.39825 15.4585 1.45589 15.4006 1.53007L8.17594 10.7872L5.2468 10.6147C3.92757 10.5121 2.60354 10.7307 1.39225 11.251L0.927971 11.4505C0.523783 11.6241 0.495925 12.1765 0.880592 12.3899Z" fill="#605DEC"/>
</svg>