<svg xmlns="http://www.w3.org/2000/svg" width="150" height="360" viewBox="0 0 150 360" fill="none">
  <path d="M142.126 16.6172C140.754 7.27208 132.69 0.5 123.229 0.5H75H27.3459C17.6409 0.5 9.42451 7.63516 8.18141 17.2535C5.22665 40.1154 0.499985 80.1822 0.499985 102.5V102.504C0.499985 134.98 0.499985 187.632 28.4701 264.83C36.1059 285.905 47.8427 309.63 57.6773 328.096C62.5934 337.327 67.0319 345.24 70.2411 350.845C71.8457 353.647 73.143 355.872 74.0389 357.396C74.4283 358.059 74.7419 358.589 74.972 358.976C75.1771 358.584 75.4557 358.051 75.8015 357.386C76.6053 355.84 77.7725 353.586 79.2256 350.751C82.132 345.082 86.1819 337.091 90.7564 327.807C99.9063 309.236 111.15 285.499 119.537 264.812C149.5 190.902 149.5 148.477 149.5 102.508V102.5C149.5 71.9687 145.088 36.7919 142.126 16.6172Z" fill="#EAEBFF" stroke="#BFC8D9"/>
</svg>