<svg xmlns="http://www.w3.org/2000/svg" width="33" height="33" viewBox="0 0 33 33" fill="none">
  <path fill-rule="evenodd" clip-rule="evenodd" d="M7.3414 9.97884C7.07092 9.89096 6.78625 10.067 6.74403 10.3482L6.2374 13.723C6.16482 14.2065 6.45239 14.6715 6.9173 14.8225L24.1766 20.4304C24.983 20.6925 25.8492 20.2511 26.1113 19.4446C26.3837 18.6063 25.8959 17.7113 25.0438 17.4859L19.7321 16.0805L18.404 6.70728C18.3489 6.31838 18.0771 5.99483 17.7035 5.87345C17.0776 5.67006 16.4243 6.09886 16.3619 6.7541L15.6018 14.7384L8.34558 12.7959L7.64227 10.2921C7.60066 10.1439 7.48775 10.0264 7.3414 9.97884ZM26.1775 23.4521H5.64746V25.0314H26.1775V23.4521Z" fill="#6E7491"/>
</svg>